<mxfile host="app.diagrams.net" modified="2022-11-15T07:15:45.471Z" agent="5.0 (Windows NT 10.0; Win64; x64) AppleWebKit/537.36 (KHTML, like Gecko) Chrome/107.0.0.0 Safari/537.36" etag="W4bqCVIG1gqvCLPcIu9i" version="20.5.3" type="github">
  <diagram id="aS9pjdUC0Do7hMSleVWt" name="第 1 页">
    <mxGraphModel dx="1422" dy="762" grid="0" gridSize="10" guides="1" tooltips="1" connect="1" arrows="1" fold="1" page="1" pageScale="1" pageWidth="1654" pageHeight="1169" background="none" math="0" shadow="0">
      <root>
        <mxCell id="0" />
        <mxCell id="1" parent="0" />
        <mxCell id="jM2YkDIqySkAnny3rG-Z-1" value="Callback" style="swimlane;fontStyle=0;childLayout=stackLayout;horizontal=1;startSize=26;fillColor=#CCFFCC;horizontalStack=0;resizeParent=1;resizeParentMax=0;resizeLast=0;collapsible=1;marginBottom=0;direction=east;strokeColor=default;swimlaneLine=1;glass=0;rounded=0;shadow=0;" parent="1" vertex="1" collapsed="1">
          <mxGeometry x="651" y="128" width="149" height="30" as="geometry">
            <mxRectangle x="604" y="162" width="183" height="52" as="alternateBounds" />
          </mxGeometry>
        </mxCell>
        <mxCell id="jM2YkDIqySkAnny3rG-Z-2" value="" style="text;strokeColor=none;fillColor=#CCFFFF;align=left;verticalAlign=top;spacingLeft=4;spacingRight=4;overflow=hidden;rotatable=0;points=[[0,0.5],[1,0.5]];portConstraint=eastwest;" parent="jM2YkDIqySkAnny3rG-Z-1" vertex="1">
          <mxGeometry y="26" width="183" height="26" as="geometry" />
        </mxCell>
        <mxCell id="1zh0-1zabI6x6Ul2QVCg-7" value="" style="endArrow=classic;html=1;rounded=0;exitX=0.5;exitY=0;exitDx=0;exitDy=0;entryX=1;entryY=1;entryDx=0;entryDy=0;" parent="1" edge="1" target="jM2YkDIqySkAnny3rG-Z-1" source="1zh0-1zabI6x6Ul2QVCg-19">
          <mxGeometry width="50" height="50" relative="1" as="geometry">
            <mxPoint x="83" y="204" as="sourcePoint" />
            <mxPoint x="127" y="132" as="targetPoint" />
          </mxGeometry>
        </mxCell>
        <mxCell id="1zh0-1zabI6x6Ul2QVCg-11" value="LazyLoader" style="swimlane;fontStyle=0;childLayout=stackLayout;horizontal=1;startSize=26;fillColor=#CCFFCC;horizontalStack=0;resizeParent=1;resizeParentMax=0;resizeLast=0;collapsible=1;marginBottom=0;direction=east;strokeColor=default;swimlaneLine=1;glass=0;rounded=0;shadow=0;" parent="1" vertex="1" collapsed="1">
          <mxGeometry x="538" y="265" width="111" height="30" as="geometry">
            <mxRectangle x="604" y="162" width="183" height="52" as="alternateBounds" />
          </mxGeometry>
        </mxCell>
        <mxCell id="1zh0-1zabI6x6Ul2QVCg-12" value="" style="text;strokeColor=none;fillColor=#CCFFFF;align=left;verticalAlign=top;spacingLeft=4;spacingRight=4;overflow=hidden;rotatable=0;points=[[0,0.5],[1,0.5]];portConstraint=eastwest;" parent="1zh0-1zabI6x6Ul2QVCg-11" vertex="1">
          <mxGeometry y="26" width="183" height="26" as="geometry" />
        </mxCell>
        <mxCell id="1zh0-1zabI6x6Ul2QVCg-13" value="NoOp" style="swimlane;fontStyle=0;childLayout=stackLayout;horizontal=1;startSize=26;fillColor=#CCFFCC;horizontalStack=0;resizeParent=1;resizeParentMax=0;resizeLast=0;collapsible=1;marginBottom=0;direction=east;strokeColor=default;swimlaneLine=1;glass=0;rounded=0;shadow=0;" parent="1" vertex="1" collapsed="1">
          <mxGeometry x="428" y="265" width="79" height="30" as="geometry">
            <mxRectangle x="604" y="162" width="183" height="52" as="alternateBounds" />
          </mxGeometry>
        </mxCell>
        <mxCell id="1zh0-1zabI6x6Ul2QVCg-14" value="" style="text;strokeColor=none;fillColor=#CCFFFF;align=left;verticalAlign=top;spacingLeft=4;spacingRight=4;overflow=hidden;rotatable=0;points=[[0,0.5],[1,0.5]];portConstraint=eastwest;" parent="1zh0-1zabI6x6Ul2QVCg-13" vertex="1">
          <mxGeometry y="26" width="183" height="26" as="geometry" />
        </mxCell>
        <mxCell id="1zh0-1zabI6x6Ul2QVCg-15" value="MethodInterceptor" style="swimlane;fontStyle=0;childLayout=stackLayout;horizontal=1;startSize=26;fillColor=#CCFFCC;horizontalStack=0;resizeParent=1;resizeParentMax=0;resizeLast=0;collapsible=1;marginBottom=0;direction=east;strokeColor=default;swimlaneLine=1;glass=0;rounded=0;shadow=0;" parent="1" vertex="1" collapsed="1">
          <mxGeometry x="245" y="265" width="149" height="30" as="geometry">
            <mxRectangle x="604" y="162" width="183" height="52" as="alternateBounds" />
          </mxGeometry>
        </mxCell>
        <mxCell id="1zh0-1zabI6x6Ul2QVCg-16" value="" style="text;strokeColor=none;fillColor=#CCFFFF;align=left;verticalAlign=top;spacingLeft=4;spacingRight=4;overflow=hidden;rotatable=0;points=[[0,0.5],[1,0.5]];portConstraint=eastwest;" parent="1zh0-1zabI6x6Ul2QVCg-15" vertex="1">
          <mxGeometry y="26" width="183" height="26" as="geometry" />
        </mxCell>
        <mxCell id="1zh0-1zabI6x6Ul2QVCg-19" value="FixedValue" style="swimlane;fontStyle=0;childLayout=stackLayout;horizontal=1;startSize=26;fillColor=#CCFFCC;horizontalStack=0;resizeParent=1;resizeParentMax=0;resizeLast=0;collapsible=1;marginBottom=0;direction=east;strokeColor=default;swimlaneLine=1;glass=0;rounded=0;shadow=0;" parent="1" vertex="1" collapsed="1">
          <mxGeometry x="1047" y="265" width="105" height="30" as="geometry">
            <mxRectangle x="604" y="162" width="183" height="52" as="alternateBounds" />
          </mxGeometry>
        </mxCell>
        <mxCell id="1zh0-1zabI6x6Ul2QVCg-20" value="" style="text;strokeColor=none;fillColor=#CCFFFF;align=left;verticalAlign=top;spacingLeft=4;spacingRight=4;overflow=hidden;rotatable=0;points=[[0,0.5],[1,0.5]];portConstraint=eastwest;" parent="1zh0-1zabI6x6Ul2QVCg-19" vertex="1">
          <mxGeometry y="26" width="183" height="26" as="geometry" />
        </mxCell>
        <mxCell id="1zh0-1zabI6x6Ul2QVCg-21" value="ProxyRefDispatcher" style="swimlane;fontStyle=0;childLayout=stackLayout;horizontal=1;startSize=26;fillColor=#CCFFCC;horizontalStack=0;resizeParent=1;resizeParentMax=0;resizeLast=0;collapsible=1;marginBottom=0;direction=east;strokeColor=default;swimlaneLine=1;glass=0;rounded=0;shadow=0;" parent="1" vertex="1" collapsed="1">
          <mxGeometry x="865" y="265" width="145" height="30" as="geometry">
            <mxRectangle x="604" y="162" width="183" height="52" as="alternateBounds" />
          </mxGeometry>
        </mxCell>
        <mxCell id="1zh0-1zabI6x6Ul2QVCg-22" value="" style="text;strokeColor=none;fillColor=#CCFFFF;align=left;verticalAlign=top;spacingLeft=4;spacingRight=4;overflow=hidden;rotatable=0;points=[[0,0.5],[1,0.5]];portConstraint=eastwest;" parent="1zh0-1zabI6x6Ul2QVCg-21" vertex="1">
          <mxGeometry y="26" width="183" height="26" as="geometry" />
        </mxCell>
        <mxCell id="1zh0-1zabI6x6Ul2QVCg-23" value="InvocationHandler" style="swimlane;fontStyle=0;childLayout=stackLayout;horizontal=1;startSize=26;fillColor=#CCFFCC;horizontalStack=0;resizeParent=1;resizeParentMax=0;resizeLast=0;collapsible=1;marginBottom=0;direction=east;strokeColor=default;swimlaneLine=1;glass=0;rounded=0;shadow=0;" parent="1" vertex="1" collapsed="1">
          <mxGeometry x="690" y="265" width="130" height="30" as="geometry">
            <mxRectangle x="604" y="162" width="183" height="52" as="alternateBounds" />
          </mxGeometry>
        </mxCell>
        <mxCell id="1zh0-1zabI6x6Ul2QVCg-24" value="" style="text;strokeColor=none;fillColor=#CCFFFF;align=left;verticalAlign=top;spacingLeft=4;spacingRight=4;overflow=hidden;rotatable=0;points=[[0,0.5],[1,0.5]];portConstraint=eastwest;" parent="1zh0-1zabI6x6Ul2QVCg-23" vertex="1">
          <mxGeometry y="26" width="183" height="26" as="geometry" />
        </mxCell>
        <mxCell id="g925t1tj5EjnBUMmij5T-1" value="" style="endArrow=classic;html=1;rounded=0;exitX=0.5;exitY=0;exitDx=0;exitDy=0;entryX=0.75;entryY=1;entryDx=0;entryDy=0;" edge="1" parent="1" source="1zh0-1zabI6x6Ul2QVCg-21" target="jM2YkDIqySkAnny3rG-Z-1">
          <mxGeometry width="50" height="50" relative="1" as="geometry">
            <mxPoint x="93" y="214" as="sourcePoint" />
            <mxPoint x="137" y="142" as="targetPoint" />
          </mxGeometry>
        </mxCell>
        <mxCell id="g925t1tj5EjnBUMmij5T-2" value="" style="endArrow=classic;html=1;rounded=0;exitX=0.5;exitY=0;exitDx=0;exitDy=0;entryX=0.5;entryY=1;entryDx=0;entryDy=0;" edge="1" parent="1" source="1zh0-1zabI6x6Ul2QVCg-23" target="jM2YkDIqySkAnny3rG-Z-1">
          <mxGeometry width="50" height="50" relative="1" as="geometry">
            <mxPoint x="103" y="224" as="sourcePoint" />
            <mxPoint x="147" y="152" as="targetPoint" />
          </mxGeometry>
        </mxCell>
        <mxCell id="g925t1tj5EjnBUMmij5T-3" value="" style="endArrow=classic;html=1;rounded=0;exitX=0.5;exitY=0;exitDx=0;exitDy=0;entryX=0.5;entryY=1;entryDx=0;entryDy=0;" edge="1" parent="1" source="1zh0-1zabI6x6Ul2QVCg-11" target="jM2YkDIqySkAnny3rG-Z-1">
          <mxGeometry width="50" height="50" relative="1" as="geometry">
            <mxPoint x="113" y="234" as="sourcePoint" />
            <mxPoint x="157" y="162" as="targetPoint" />
          </mxGeometry>
        </mxCell>
        <mxCell id="g925t1tj5EjnBUMmij5T-4" value="" style="endArrow=classic;html=1;rounded=0;exitX=0.5;exitY=0;exitDx=0;exitDy=0;entryX=0.25;entryY=1;entryDx=0;entryDy=0;" edge="1" parent="1" source="1zh0-1zabI6x6Ul2QVCg-13" target="jM2YkDIqySkAnny3rG-Z-1">
          <mxGeometry width="50" height="50" relative="1" as="geometry">
            <mxPoint x="123" y="244" as="sourcePoint" />
            <mxPoint x="167" y="172" as="targetPoint" />
          </mxGeometry>
        </mxCell>
        <mxCell id="g925t1tj5EjnBUMmij5T-5" value="" style="endArrow=classic;html=1;rounded=0;exitX=0.5;exitY=0;exitDx=0;exitDy=0;entryX=0;entryY=1;entryDx=0;entryDy=0;" edge="1" parent="1" source="1zh0-1zabI6x6Ul2QVCg-15" target="jM2YkDIqySkAnny3rG-Z-1">
          <mxGeometry width="50" height="50" relative="1" as="geometry">
            <mxPoint x="133" y="254" as="sourcePoint" />
            <mxPoint x="177" y="182" as="targetPoint" />
          </mxGeometry>
        </mxCell>
      </root>
    </mxGraphModel>
  </diagram>
</mxfile>
